<?xml version="1.0" standalone="no"?><!DOCTYPE svg PUBLIC "-//W3C//DTD SVG 1.1//EN" "http://www.w3.org/Graphics/SVG/1.1/DTD/svg11.dtd"><svg t="1581695457142" class="icon" viewBox="0 0 1024 1024" version="1.1" xmlns="http://www.w3.org/2000/svg" p-id="6819" xmlns:xlink="http://www.w3.org/1999/xlink" width="200" height="200"><defs><style type="text/css"></style></defs><path d="M196.127882 827.876683a446.708971 446.708971 0 1 0 631.73086-631.752912 446.708971 446.708971 0 1 0-631.73086 631.752912Z" fill="#FFD100" p-id="6820"></path><path d="M196.128913 827.871087c87.063915 87.063915 201.12367 130.672108 315.233567 130.834814 114.091478-0.031722 228.173746-43.4987 315.312362-130.404002L195.320501 196.946534c-173.637666 174.515662-173.371606 456.745559 0.808412 630.924553z" fill="#FF9500" p-id="6821"></path><path d="M786.848789 237.151211c-151.795195-151.795195-397.903405-151.795195-549.697578 0s-151.795195 397.903405 0 549.697578 397.903405 151.795195 549.697578 0 151.795195-397.903405 0-549.697578z m-23.588232 526.109346c-138.767484 138.767484-363.754654 138.767484-502.522138 0s-138.767484-363.754654 0-502.522138 363.754654-138.767484 502.522138 0 138.768507 363.754654 0 502.522138z" fill="#FFFFFF" p-id="6822"></path><path d="M236.347916 237.97395c-150.980643 151.859663-150.7197 397.351843 0.803295 548.874839s397.015176 151.782915 548.874839 0.803295l-23.588231-23.588231c-138.831952 137.952932-363.203092 137.693012-501.6994-0.803296s-138.756227-362.866425-0.803295-501.699399l-23.587208-23.587208z" fill="#FFD100" p-id="6823"></path><path d="M509.611603 198.35665m-14.503318 0a14.503319 14.503319 0 1 0 29.006637 0 14.503319 14.503319 0 1 0-29.006637 0Z" fill="#FFFFFF" p-id="6824"></path><path d="M509.611603 826.12328m-14.503318 0a14.503319 14.503319 0 1 0 29.006637 0 14.503319 14.503319 0 1 0-29.006637 0Z" fill="#FFD100" p-id="6825"></path><path d="M446.183569 204.507051a14.503319 14.503319 0 1 0 28.649834-4.535638 14.503319 14.503319 0 1 0-28.649834 4.535638Z" fill="#FFFFFF" p-id="6826"></path><path d="M544.367962 824.556282a14.503319 14.503319 0 1 0 28.649834-4.535638 14.503319 14.503319 0 1 0-28.649834 4.535638Z" fill="#FFD100" p-id="6827"></path><path d="M398.822641 218.208601a14.503319 14.503319 0 1 0 27.587264-8.962581 14.503319 14.503319 0 1 0-27.587264 8.962581Z" fill="#FFFFFF" p-id="6828"></path><path d="M592.804043 815.258338a14.503319 14.503319 0 1 0 27.587265-8.962581 14.503319 14.503319 0 1 0-27.587265 8.962581Z" fill="#FFD100" p-id="6829"></path><path d="M354.189273 239.146859a14.503319 14.503319 0 1 0 25.845103-13.168738 14.503319 14.503319 0 1 0-25.845103 13.168738Z" fill="#FFFFFF" p-id="6830"></path><path d="M639.192677 798.484918a14.503319 14.503319 0 1 0 25.845104-13.168738 14.503319 14.503319 0 1 0-25.845104 13.168738Z" fill="#FFD100" p-id="6831"></path><path d="M313.380172 266.818979a14.503319 14.503319 0 1 0 23.466267-17.050493 14.503319 14.503319 0 1 0-23.466267 17.050493Z" fill="#FFFFFF" p-id="6832"></path><path d="M682.373612 774.679219a14.503319 14.503319 0 1 0 23.466267-17.050493 14.503319 14.503319 0 1 0-23.466267 17.050493Z" fill="#FFD100" p-id="6833"></path><path d="M277.403195 300.546105a14.503319 14.503319 0 1 0 20.510432-20.511149 14.503319 14.503319 0 1 0-20.510432 20.511149Z" fill="#FFFFFF" p-id="6834"></path><path d="M277.933033 279.56009c-0.174985 0.158612-0.357134 0.305969-0.525979 0.475838-5.664 5.664-5.664 14.84715 0 20.511149s14.84715 5.664 20.511149 0c0.168846-0.168846 0.316202-0.350994 0.475838-0.525979l-20.461008-20.461008z" fill="#FFD100" p-id="6835"></path><path d="M721.295904 744.444705a14.503319 14.503319 0 1 0 20.510432-20.511148 14.503319 14.503319 0 1 0-20.510432 20.511148Z" fill="#FFFFFF" p-id="6836"></path><path d="M741.816153 744.445026c0.168846-0.168846 0.316202-0.350994 0.475837-0.525979l-20.461007-20.461008c-0.174985 0.158612-0.357134 0.305969-0.52598 0.475838-5.664 5.664-5.664 14.84715 0 20.511149s14.84715 5.664 20.51115 0z" fill="#FFD100" p-id="6837"></path><path d="M247.148466 339.485922a14.503319 14.503319 0 1 0 17.050083-23.466565 14.503319 14.503319 0 1 0-17.050083 23.466565Z" fill="#FFD100" p-id="6838"></path><path d="M755.024261 708.49258a14.503319 14.503319 0 1 0 17.050084-23.466565 14.503319 14.503319 0 1 0-17.050084 23.466565Z" fill="#FFFFFF" p-id="6839"></path><path d="M223.356015 382.667288a14.503319 14.503319 0 1 0 13.168738-25.845103 14.503319 14.503319 0 1 0-13.168738 25.845103Z" fill="#FFD100" p-id="6840"></path><path d="M782.70274 667.673304a14.503319 14.503319 0 1 0 13.168738-25.845103 14.503319 14.503319 0 1 0-13.168738 25.845103Z" fill="#FFFFFF" p-id="6841"></path><path d="M206.613465 429.006765a14.503319 14.503319 0 1 0 8.962581-27.587265 14.503319 14.503319 0 1 0-8.962581 27.587265Z" fill="#FFD100" p-id="6842"></path><path d="M803.634204 622.96278a14.503319 14.503319 0 1 0 8.962581-27.587265 14.503319 14.503319 0 1 0-8.962581 27.587265Z" fill="#FFFFFF" p-id="6843"></path><path d="M197.322064 477.44583a14.503319 14.503319 0 1 0 4.536638-28.649676 14.503319 14.503319 0 1 0-4.536638 28.649676Z" fill="#FFD100" p-id="6844"></path><path d="M817.339786 575.638464a14.503319 14.503319 0 1 0 4.536638-28.649676 14.503319 14.503319 0 1 0-4.536638 28.649676Z" fill="#FFFFFF" p-id="6845"></path><path d="M195.727777 512.239454m-14.503319 0a14.503319 14.503319 0 1 0 29.006637 0 14.503319 14.503319 0 1 0-29.006637 0Z" fill="#FFD100" p-id="6846"></path><path d="M823.49543 512.239454m-14.503319 0a14.503319 14.503319 0 1 0 29.006638 0 14.503319 14.503319 0 1 0-29.006638 0Z" fill="#FFFFFF" p-id="6847"></path><path d="M185.251575 563.623277a14.503319 14.503319 0 1 0 28.649834-4.535637 14.503319 14.503319 0 1 0-28.649834 4.535637Z" fill="#FFD100" p-id="6848"></path><path d="M805.299956 465.440055a14.503319 14.503319 0 1 0 28.649834-4.535638 14.503319 14.503319 0 1 0-28.649834 4.535638Z" fill="#FFFFFF" p-id="6849"></path><path d="M197.288606 613.725011a14.503319 14.503319 0 1 0 27.587265-8.962581 14.503319 14.503319 0 1 0-27.587265 8.962581Z" fill="#FFD100" p-id="6850"></path><path d="M794.338028 419.742635a14.503319 14.503319 0 1 0 27.587264-8.962581 14.503319 14.503319 0 1 0-27.587264 8.962581Z" fill="#FFFFFF" p-id="6851"></path><path d="M217.021769 661.317879a14.503319 14.503319 0 1 0 25.845103-13.168738 14.503319 14.503319 0 1 0-25.845103 13.168738Z" fill="#FFD100" p-id="6852"></path><path d="M776.359716 376.314009a14.503319 14.503319 0 1 0 25.845104-13.168738 14.503319 14.503319 0 1 0-25.845104 13.168738Z" fill="#FFFFFF" p-id="6853"></path><path d="M243.947486 705.245932a14.503319 14.503319 0 1 0 23.466268-17.050493 14.503319 14.503319 0 1 0-23.466268 17.050493Z" fill="#FFD100" p-id="6854"></path><path d="M751.807125 336.251664a14.503319 14.503319 0 1 0 23.466267-17.050493 14.503319 14.503319 0 1 0-23.466267 17.050493Z" fill="#FFFFFF" p-id="6855"></path><path d="M277.400973 744.441759a14.503319 14.503319 0 1 0 20.510432-20.511148 14.503319 14.503319 0 1 0-20.510432 20.511148Z" fill="#FFD100" p-id="6856"></path><path d="M721.298426 300.549774a14.503319 14.503319 0 1 0 20.510432-20.511148 14.503319 14.503319 0 1 0-20.510432 20.511148Z" fill="#FFFFFF" p-id="6857"></path><path d="M316.582832 777.927774a14.503319 14.503319 0 1 0 17.050083-23.466565 14.503319 14.503319 0 1 0-17.050083 23.466565Z" fill="#FFD100" p-id="6858"></path><path d="M685.589294 270.051556a14.503319 14.503319 0 1 0 17.050083-23.466565 14.503319 14.503319 0 1 0-17.050083 23.466565Z" fill="#FFFFFF" p-id="6859"></path><path d="M360.526194 804.844394a14.503319 14.503319 0 1 0 13.168737-25.845103 14.503319 14.503319 0 1 0-13.168737 25.845103Z" fill="#FFD100" p-id="6860"></path><path d="M645.532562 245.496198a14.503319 14.503319 0 1 0 13.168738-25.845103 14.503319 14.503319 0 1 0-13.168738 25.845103Z" fill="#FFFFFF" p-id="6861"></path><path d="M408.146472 824.49379a14.503319 14.503319 0 1 0 8.962581-27.587264 14.503319 14.503319 0 1 0-8.962581 27.587264Z" fill="#FFD100" p-id="6862"></path><path d="M602.100224 227.475438a14.503319 14.503319 0 1 0 8.962581-27.587264 14.503319 14.503319 0 1 0-8.962581 27.587264Z" fill="#FFFFFF" p-id="6863"></path><path d="M458.235107 836.550656a14.503319 14.503319 0 1 0 4.536638-28.649676 14.503319 14.503319 0 1 0-4.536638 28.649676Z" fill="#FFD100" p-id="6864"></path><path d="M556.427754 216.532774a14.503319 14.503319 0 1 0 4.536638-28.649676 14.503319 14.503319 0 1 0-4.536638 28.649676Z" fill="#FFFFFF" p-id="6865"></path><path d="M512 343.304903c53.196573 0 96.479355 32.483832 96.479355 72.408124 0 13.1853 10.69048 23.876804 23.876804 23.876803s23.876804-10.69048 23.876803-23.876803c0-59.479673-52.1528-108.974947-120.355135-118.484532v-25.941835c0-13.1853-10.69048-23.876804-23.876804-23.876804s-23.876804 10.69048-23.876803 23.876804v25.941835c-68.203358 9.508561-120.355135 59.004859-120.355135 118.484532 0 66.25703 64.702628 120.16173 144.231938 120.16173 53.196573 0 96.479355 32.483832 96.479355 72.408123s-43.279712 72.408123-96.479355 72.408123-96.479355-32.483832-96.479355-72.408123c0-13.1853-10.69048-23.876804-23.876803-23.876803s-23.876804 10.69048-23.876804 23.876803c0 59.479673 52.154847 108.97597 120.355135 118.484532v25.944905c0 13.1853 10.69048 23.876804 23.876804 23.876804 13.1853 0 23.876804-10.69048 23.876804-23.876804v-25.944905c68.203358-9.508561 120.355135-59.004859 120.355135-118.484532 0-66.25703-64.702628-120.16173-144.231939-120.16173-53.199643 0-96.479355-32.483832-96.479355-72.408123s43.279712-72.408123 96.479355-72.408124z" fill="#FFFFFF" p-id="6866"></path><path d="M535.876804 752.712317v-25.944905c51.723012-7.211239 94.206592-37.423331 111.7215-77.543074l-39.149648-39.149649c-1.27197 39.10053-44.047192 70.617337-96.448656 70.617338-53.199643 0-96.479355-32.483832-96.479355-72.408123 0-13.1853-10.69048-23.876804-23.876804-23.876804s-23.876804 10.69048-23.876803 23.876804c0 59.479673 52.154847 108.97597 120.356158 118.484531v25.944905c0 13.1853 10.69048 23.876804 23.876804 23.876804s23.876804-10.691503 23.876804-23.877827zM367.768061 415.713027c0 66.25703 64.702628 120.16173 144.231939 120.16173 8.515954 0 16.776082 0.836041 24.647353 2.39863l-53.447283-53.447283c-38.58683-9.076726-66.813708-35.890418-67.654866-67.654866l-40.111556-40.111556c-4.964058 12.135388-7.665587 25.13547-7.665587 38.653345z" fill="#FFD100" p-id="6867"></path></svg>